<?xml version="1.0" encoding="utf-8"?>
<!-- Generator: Adobe Illustrator 27.5.0, SVG Export Plug-In . SVG Version: 6.00 Build 0)  -->
<svg version="1.1" xmlns="http://www.w3.org/2000/svg" xmlns:xlink="http://www.w3.org/1999/xlink" x="0px" y="0px"
	 viewBox="0 0 700 500" style="enable-background:new 0 0 700 500;" xml:space="preserve">
<g id="BACKGROUND">
	<rect style="fill:#EBF9FC;" width="700" height="500"/>
	<path style="fill:#E4F6F9;" d="M611.969,274.033c0,93.891-216.545,147.767-310.436,147.767
		c-93.891,0-213.502-108.969-213.502-202.86S411.136,78.2,505.026,78.2S611.969,180.142,611.969,274.033z"/>
</g>
<g id="OBJECTS">
	<g id="email">
		<rect x="459.808" y="140.529" style="fill:#E8E7EC;" width="57.015" height="36.506"/>
		<polygon style="fill:#AEAFB6;" points="488.315,154.541 459.808,177.035 516.823,177.035 		"/>
		<polygon style="fill:#DD1A3C;" points="488.315,163.089 516.823,140.595 459.808,140.595 		"/>
		
			<line style="fill:none;stroke:#DD1A3C;stroke-width:2;stroke-linecap:round;stroke-linejoin:round;stroke-miterlimit:10;" x1="450.297" y1="177.035" x2="366.479" y2="177.035"/>
		
			<line style="fill:none;stroke:#DD1A3C;stroke-width:2;stroke-linecap:round;stroke-linejoin:round;stroke-miterlimit:10;" x1="459.808" y1="158.782" x2="348.226" y2="158.782"/>
		
			<line style="fill:none;stroke:#DD1A3C;stroke-width:2;stroke-linecap:round;stroke-linejoin:round;stroke-miterlimit:10;" x1="437.825" y1="140.383" x2="329.339" y2="139.895"/>
	</g>
	<g id="Computer">
		<path style="fill:#EDEDED;" d="M284.28,108.36l-30,61.56h81.36l30-61.56H284.28z M333.29,167.1h-73.91l27.25-55.92h73.91
			L333.29,167.1z"/>
		<rect x="217" y="169.92" style="fill:#443963;" width="118.64" height="7.09"/>
		<polygon style="fill:#AEAFB6;" points="368.24,110.9 335.64,177.01 335.64,169.92 365.64,108.36 		"/>
		<polygon style="fill:#00BAD9;" points="360.54,111.18 333.29,167.1 259.38,167.1 286.63,111.18 		"/>
	</g>
	<g id="waves">
		<path style="fill:none;stroke:#DD1A3C;stroke-width:2;stroke-linecap:round;stroke-linejoin:round;stroke-miterlimit:10;" d="
			M310.219,142.686c-2.321,2.975-5.477,4.387-7.746,3.216c-2.771-1.43-3.169-6.17-0.89-10.587c1.425-2.761,3.558-4.742,5.635-5.49"
			/>
		<path style="fill:none;stroke:#DD1A3C;stroke-width:2;stroke-linecap:round;stroke-linejoin:round;stroke-miterlimit:10;" d="
			M311.655,130.591c1.6,1.62,1.893,4.789,0.758,8.055"/>
		<path style="fill:none;stroke:#DD1A3C;stroke-width:2;stroke-linecap:round;stroke-linejoin:round;stroke-miterlimit:10;" d="
			M298.824,152.972c-5.22-2.694-5.971-11.624-1.676-19.945c1.445-2.799,3.276-5.173,5.27-6.988"/>
		<path style="fill:none;stroke:#DD1A3C;stroke-width:2;stroke-linecap:round;stroke-linejoin:round;stroke-miterlimit:10;" d="
			M314.376,122.837c5.22,2.694,5.971,11.624,1.676,19.945c-1.61,3.121-3.702,5.712-5.962,7.591"/>
		<path style="fill:none;stroke:#DD1A3C;stroke-width:2;stroke-linecap:round;stroke-linejoin:round;stroke-miterlimit:10;" d="
			M295.44,159.53c-7.492-3.867-8.57-16.683-2.406-28.627c2.768-5.364,6.527-9.64,10.506-12.373"/>
		<path style="fill:none;stroke:#DD1A3C;stroke-width:2;stroke-linecap:round;stroke-linejoin:round;stroke-miterlimit:10;" d="
			M324.06,127.293c0.504,5.235-0.758,11.537-3.894,17.613c-2.668,5.17-6.256,9.329-10.075,12.07"/>
	</g>
	<g id="data_2">
		<path style="fill:#443963;" d="M364.08,449.465H287.4V177.007h66.68c5.523,0,10,4.477,10,10V449.465z"/>
		<g id="box_4">
			<path style="fill:#EDEDED;" d="M287.4,245.121H186.6v-58.114c0-5.523,4.477-10,10-10h90.8V245.121z"/>
			<polyline style="fill:#120239;" points="287.4,245.121 186.6,245.121 186.76,240.321 			"/>
			<g>
				<rect x="223.92" y="199.784" style="fill:#DD1A3C;" width="26.16" height="6.72"/>
				<g>
					<rect x="206.76" y="219.224" style="fill:#443963;" width="49.92" height="3.12"/>
					<rect x="256.68" y="219.224" style="fill:#AEAFB6;" width="10.56" height="3.12"/>
				</g>
			</g>
		</g>
		<g id="box_3_1_">
			<path style="fill:#EDEDED;" d="M247.4,381.35H146.6v-58.114c0-5.523,4.477-10,10-10h90.8V381.35z"/>
			<polygon style="fill:#120239;" points="287.4,381.35 146.6,381.35 146.6,376.55 			"/>
			<g>
				<rect x="183.92" y="336.013" style="fill:#DD1A3C;" width="26.16" height="6.72"/>
				<g>
					<rect x="166.76" y="355.453" style="fill:#443963;" width="49.92" height="3.12"/>
					<rect x="216.68" y="355.453" style="fill:#AEAFB6;" width="10.56" height="3.12"/>
				</g>
			</g>
			<rect x="247.24" y="313.236" style="fill:#AEAFB6;" width="40.16" height="68.114"/>
			<polygon style="fill:#120239;" points="287.4,313.236 280.97,381.35 287.4,381.35 			"/>
		</g>
		<g id="box_2_1_">
			<rect x="267.4" y="245.121" style="fill:#AEAFB6;" width="20" height="68.114"/>
			<g>
				<path style="fill:#EDEDED;" d="M267.4,313.236H166.6v-58.114c0-5.523,4.477-10,10-10h90.8V313.236z"/>
				<g>
					<rect x="203.92" y="267.898" style="fill:#DD1A3C;" width="26.16" height="6.72"/>
					<g>
						<rect x="186.76" y="287.338" style="fill:#443963;" width="49.92" height="3.12"/>
						<rect x="236.68" y="287.338" style="fill:#AEAFB6;" width="10.56" height="3.12"/>
					</g>
				</g>
				<polygon style="fill:#120239;" points="287.4,313.236 166.6,313.236 166.6,308.436 				"/>
			</g>
			<polygon style="fill:#120239;" points="287.4,245.121 280.97,313.236 287.4,313.236 			"/>
		</g>
		<g id="box_1_1_">
			<g>
				<path style="fill:#EDEDED;" d="M227.4,449.464H126.6V391.35c0-5.523,4.477-10,10-10h90.8V449.464z"/>
				<g>
					<rect x="163.92" y="404.127" style="fill:#DD1A3C;" width="26.16" height="6.72"/>
					<g>
						<rect x="146.76" y="423.567" style="fill:#443963;" width="49.92" height="3.12"/>
						<rect x="196.68" y="423.567" style="fill:#AEAFB6;" width="10.56" height="3.12"/>
					</g>
				</g>
				<rect x="227.24" y="381.35" style="fill:#AEAFB6;" width="60.16" height="68.115"/>
			</g>
			<polygon style="fill:#120239;" points="287.4,381.35 280.97,449.464 287.4,449.464 			"/>
		</g>
	</g>
	<g id="interconection_2">
		<polyline style="fill:none;stroke:#443963;stroke-linecap:round;stroke-linejoin:round;stroke-miterlimit:10;" points="
			85.32,449.465 120.36,358.573 168.84,379.77 280.2,287.338 190,312.12 109.56,203.144 210.208,244.449 234.12,118.984 
			306.6,137.904 		"/>
		<path style="fill:#F0405C;" d="M282.483,287.338c0,1.261-1.022,2.283-2.283,2.283c-1.261,0-2.283-1.022-2.283-2.283
			s1.022-2.283,2.283-2.283C281.461,285.055,282.483,286.078,282.483,287.338z"/>
		<path style="fill:#F0405C;" d="M236.263,118.535c0,1.261-1.022,2.283-2.283,2.283c-1.261,0-2.283-1.022-2.283-2.283
			s1.022-2.283,2.283-2.283C235.241,116.252,236.263,117.274,236.263,118.535z"/>
		<path style="fill:#F0405C;" d="M122.643,358.573c0,1.261-1.022,2.283-2.283,2.283s-2.283-1.022-2.283-2.283
			s1.022-2.283,2.283-2.283S122.643,357.312,122.643,358.573z"/>
		<path style="fill:#F0405C;" d="M80.52,449.464c0-2.651,2.149-4.8,4.8-4.8s4.8,2.149,4.8,4.8H80.52z"/>
		<path style="fill:#F0405C;" d="M163.92,381.35c0-2.651,2.149-4.8,4.8-4.8c2.651,0,4.8,2.149,4.8,4.8H163.92z"/>
		<path style="fill:#F0405C;" d="M185.39,313.236c0-2.651,2.149-4.8,4.8-4.8c2.651,0,4.8,2.149,4.8,4.8H185.39z"/>
		<path style="fill:#F0405C;" d="M205.28,245.121c0-2.651,2.149-4.8,4.8-4.8c2.651,0,4.8,2.149,4.8,4.8H205.28z"/>
		<path style="fill:#F0405C;" d="M111.723,203.225c0,1.261-1.022,2.283-2.283,2.283c-1.261,0-2.283-1.022-2.283-2.283
			c0-1.261,1.022-2.283,2.283-2.283C110.701,200.941,111.723,201.964,111.723,203.225z"/>
	</g>
	<g id="interconection_1">
		<polyline style="fill:none;stroke:#443963;stroke-linecap:round;stroke-linejoin:round;stroke-miterlimit:10;" points="
			614.68,449.464 581.56,346.145 497.06,378.95 574.68,247.865 499.773,310.836 424.92,213.665 364.08,245.121 		"/>
		<path style="fill:#F0405C;" d="M609.88,449.464c0-2.651,2.149-4.8,4.8-4.8s4.8,2.149,4.8,4.8H609.88z"/>
		<path style="fill:#F0405C;" d="M492.26,381.35c0-2.651,2.149-4.8,4.8-4.8s4.8,2.149,4.8,4.8H492.26z"/>
		<path style="fill:#F0405C;" d="M494.973,313.236c0-2.651,2.149-4.8,4.8-4.8c2.651,0,4.8,2.149,4.8,4.8H494.973z"/>
		<path style="fill:#F0405C;" d="M427.113,213.665c0,1.261-1.022,2.283-2.283,2.283c-1.261,0-2.283-1.022-2.283-2.283
			c0-1.261,1.022-2.283,2.283-2.283C426.091,211.382,427.113,212.404,427.113,213.665z"/>
		<path style="fill:#F0405C;" d="M576.663,248.404c0,1.261-1.022,2.283-2.283,2.283s-2.283-1.022-2.283-2.283
			c0-1.261,1.022-2.283,2.283-2.283S576.663,247.144,576.663,248.404z"/>
		<path style="fill:#F0405C;" d="M583.803,346.085c0,1.261-1.022,2.283-2.283,2.283c-1.261,0-2.283-1.022-2.283-2.283
			s1.022-2.283,2.283-2.283C582.781,343.802,583.803,344.824,583.803,346.085z"/>
	</g>
	<g id="data_1">
		<g id="box_3">
			<path style="fill:#EDEDED;" d="M440.76,313.236h100.8v-58.114c0-5.523-4.477-10-10-10h-90.8V313.236z"/>
			<g>
				
					<rect x="478.08" y="267.898" transform="matrix(-1 -1.224647e-16 1.224647e-16 -1 982.32 542.5168)" style="fill:#DD1A3C;" width="26.16" height="6.72"/>
				<g>
					
						<rect x="471.48" y="287.338" transform="matrix(-1 -1.224647e-16 1.224647e-16 -1 992.88 577.7968)" style="fill:#443963;" width="49.92" height="3.12"/>
					
						<rect x="460.92" y="287.338" transform="matrix(-1 -1.224647e-16 1.224647e-16 -1 932.4 577.7968)" style="fill:#AEAFB6;" width="10.56" height="3.12"/>
				</g>
			</g>
			<polygon style="fill:#120239;" points="440.76,313.236 541.56,313.236 541.56,309.918 			"/>
		</g>
		<g id="box_2">
			<g>
				<path style="fill:#EDEDED;" d="M480.76,449.464h100.8V391.35c0-5.523-4.477-10-10-10h-90.8V449.464z"/>
				<g>
					
						<rect x="518.08" y="404.127" transform="matrix(-1 -1.224647e-16 1.224647e-16 -1 1062.3204 814.9738)" style="fill:#DD1A3C;" width="26.16" height="6.72"/>
					<g>
						
							<rect x="511.48" y="423.567" transform="matrix(-1 -1.224647e-16 1.224647e-16 -1 1072.8804 850.2538)" style="fill:#443963;" width="49.92" height="3.12"/>
						
							<rect x="500.92" y="423.567" transform="matrix(-1 -1.224647e-16 1.224647e-16 -1 1012.4004 850.2538)" style="fill:#AEAFB6;" width="10.56" height="3.12"/>
					</g>
				</g>
			</g>
			<rect x="440.76" y="381.35" style="fill:#AEAFB6;" width="40" height="68.114"/>
			<polygon style="fill:#120239;" points="440.76,381.35 447.19,449.464 440.76,449.464 			"/>
		</g>
		<g>
			<rect x="364.08" y="245.121" style="fill:#443963;" width="76.68" height="204.343"/>
			<polygon style="fill:#120239;" points="386.44,245.121 364.08,245.121 364.08,449.465 			"/>
		</g>
		<g id="box_1">
			<rect x="440.76" y="313.236" style="fill:#AEAFB6;" width="20" height="68.114"/>
			<g>
				<g>
					<path style="fill:#EDEDED;" d="M460.76,381.35h100.8v-58.114c0-5.523-4.477-10-10-10h-90.8V381.35z"/>
					<g>
						
							<rect x="498.08" y="336.013" transform="matrix(-1 -1.224647e-16 1.224647e-16 -1 1022.3202 678.7454)" style="fill:#DD1A3C;" width="26.16" height="6.72"/>
						<g>
							
								<rect x="491.48" y="355.453" transform="matrix(-1 -1.224647e-16 1.224647e-16 -1 1032.8802 714.0254)" style="fill:#443963;" width="49.92" height="3.12"/>
							
								<rect x="480.92" y="355.453" transform="matrix(-1 -1.224647e-16 1.224647e-16 -1 972.4002 714.0254)" style="fill:#AEAFB6;" width="10.56" height="3.12"/>
						</g>
					</g>
				</g>
				<polygon style="fill:#120239;" points="440.76,313.236 447.19,381.35 440.76,381.35 				"/>
				<polygon style="fill:#120239;" points="440.76,381.35 561.56,381.35 561.56,378.95 				"/>
			</g>
		</g>
	</g>
	<g id="papers">
		<g>
			<path style="fill:#F0405C;" d="M563.65,214.66c-27.01-11.3-35.97,13.1-35.97,13.1l-6.62-7.34l-10.29-11.41
				c0,0,8.97-24.41,35.97-13.11l13,14.43c0.01,0.01,0.02,0.01,0.02,0.01L563.65,214.66z"/>
			<path style="fill:#DD1A3C;" d="M563.65,214.66c-27.01-11.3-35.97,13.1-35.97,13.1l-6.62-7.34c14.5-20.33,37.94-10.41,38.68-10.09
				c0.01,0.01,0.02,0.01,0.02,0.01L563.65,214.66z"/>
			<path style="fill:#DD1A3C;" d="M518.603,217.696c0,0,16.266-15.496,32.907-11.626c0,0-19.248-6.192-34.739,9.594L518.603,217.696
				z"/>
		</g>
		<g>
			<path style="fill:#F0405C;" d="M550.8,257.64l-7.46,1.51l-12.94,2.63c9.48-13.68,1.5-24.72,1.5-24.72l11.46-2.39l3.48-0.73
				C557.1,241.56,550.8,257.64,550.8,257.64z"/>
			<path style="fill:#DD1A3C;" d="M550.8,257.64l-7.46,1.51c0.25-0.46,7.63-14.96,0-24.47l0.02-0.01l3.48-0.73
				C557.1,241.56,550.8,257.64,550.8,257.64z"/>
			<path style="fill:#DD1A3C;" d="M541.557,235.046c0,0,5.303,6.304,2.653,16.204c0,0-0.117-13.362-4.514-15.816L541.557,235.046z"
				/>
		</g>
		<g>
			<path style="fill:#F0405C;" d="M593.92,202.2c-10.21,17.5-25.88,24.41-25.88,24.41l-9.36-3.79l-1.29-0.52l-2.59-1.05h-0.01
				l-3.28-1.33c0,0,15.67-6.9,25.89-24.4l13.01,5.26L593.92,202.2z"/>
			<path style="fill:#DD1A3C;" d="M593.92,202.2c-10.21,17.5-25.88,24.41-25.88,24.41l-9.36-3.79c0,0,23.84-6.9,31.73-22.04
				L593.92,202.2z"/>
			<path style="fill:#DD1A3C;" d="M586.24,204.09c-6.21,8.37-28.85,18.21-28.85,18.21l-2.59-1.05
				C560.27,220.92,586.24,204.09,586.24,204.09z"/>
		</g>
		<g>
			<path style="fill:#F0405C;" d="M588.45,284.94c-16.38,2.97-18.54,16.42-18.54,16.42L557.14,293
				c-1.87-12.64,13.96-19.56,13.96-19.56l14.68,9.73L588.45,284.94z"/>
			<path style="fill:#DD1A3C;" d="M575.833,276.58c0,0-10.923,1.637-17.133,12.318c0,0,1.574-9.735,12.397-15.457L575.833,276.58z"
				/>
			<path style="fill:#DD1A3C;" d="M588.45,284.94c-16.38,2.97-18.54,16.42-18.54,16.42l-2.64-5.02
				c9.19-14.4,18.51-13.17,18.51-13.17L588.45,284.94z"/>
			<path style="fill:#DD1A3C;" d="M584.552,282.356c0,0-11.059,1.848-17.286,9.896c0,0,7.167-11.021,14.81-11.537L584.552,282.356z"
				/>
		</g>
		<g>
			<path style="fill:#F0405C;" d="M603.17,311.1l-7.93,1.61l-12.48,2.53c9.48-13.68,1.51-24.72,1.51-24.72l12.03-2.51l2.91-0.61
				C609.47,295.02,603.17,311.1,603.17,311.1z"/>
			<path style="fill:#DD1A3C;" d="M603.17,311.1l-7.93,1.61c0,0,7.39-14.85,1.06-24.7l2.91-0.61
				C609.47,295.02,603.17,311.1,603.17,311.1z"/>
			<path style="fill:#DD1A3C;" d="M594.409,288.405c0,0,4.491,5.535,1.911,17.955c0,0-0.216-15.483-4.278-17.462L594.409,288.405z"
				/>
		</g>
		<g>
			<path style="fill:#F0405C;" d="M200.85,136.862l-10.05,2.04l-10.35,2.1c9.48-13.68,1.5-24.72,1.5-24.72l13.02-2.72l1.92-0.4
				C207.15,120.782,200.85,136.862,200.85,136.862z"/>
			<path style="fill:#DD1A3C;" d="M200.85,136.862l-10.05,2.04c0,0,10.95-10.54,4.17-25.34l1.92-0.4
				C207.15,120.782,200.85,136.862,200.85,136.862z"/>
			<path style="fill:#DD1A3C;" d="M189.359,139.194c0,0,7.631-10.913,4.211-20.218c0,0-0.601,15.619-7.215,20.828L189.359,139.194z"
				/>
		</g>
		<g>
			<path style="fill:#F0405C;" d="M198.72,149.912c-10.22,17.5-25.88,24.41-25.88,24.41l-5.91-2.39c-0.01,0-0.01,0-0.01,0
				l-10.61-4.3c0,0,15.67-6.91,25.89-24.41l13.76,5.57L198.72,149.912z"/>
			<path style="fill:#DD1A3C;" d="M198.72,149.912c-10.22,17.5-25.88,24.41-25.88,24.41l-5.91-2.39
				c0.61-0.34,24.61-13.77,29.03-23.14L198.72,149.912z"/>
			<path style="fill:#DD1A3C;" d="M163.78,170.659c0,0,23.524-11.038,27.827-20.038c0,0-11.374,12.821-30.805,18.83L163.78,170.659z
				"/>
		</g>
		<g>
			<path style="fill:#F0405C;" d="M166,158.082c-0.32,0.13-0.64,0.27-0.95,0.41c-25.88,11.26-15.22,34.29-15.22,34.29l-8.72-0.45
				l-16.5-0.85c0,0-10.92-23.6,16.17-34.71l20.82,1.08l4,0.21L166,158.082z"/>
			<path style="fill:#DD1A3C;" d="M161.6,157.852c-24.13,9.13-20.49,34.48-20.49,34.48l8.72,0.45c0,0-10.66-23.03,15.22-34.29
				l0.55-0.43L161.6,157.852z"/>
			<path style="fill:#DD1A3C;" d="M138.368,192.19c0,0-4.288-22.849,12.092-30.634c0,0-16.236,2.996-17.298,30.366L138.368,192.19z"
				/>
		</g>
	</g>
	<g id="board">
		<polygon style="fill:#F0405C;" points="383.006,342.734 353.006,449.465 271.886,449.465 301.886,342.734 		"/>
		<polygon style="fill:#DD1A3C;" points="388.065,347.293 359.346,449.465 353.006,449.465 383.006,342.734 		"/>
		<polygon style="fill:#443963;" points="373.866,351.514 348.802,440.685 281.026,440.685 306.091,351.514 		"/>
		<polygon style="fill:#06A8D3;" points="373.866,351.514 343.802,440.685 276.026,440.685 306.091,351.514 		"/>
		<polygon style="fill:#00BAD9;" points="373.866,351.514 338.801,440.685 271.026,440.685 306.091,351.514 		"/>
		
			<line style="fill:none;stroke:#443963;stroke-linecap:round;stroke-linejoin:round;stroke-miterlimit:10;" x1="309.906" y1="357.84" x2="363.826" y2="357.84"/>
		
			<line style="fill:none;stroke:#443963;stroke-linecap:round;stroke-linejoin:round;stroke-miterlimit:10;" x1="307.986" y1="362.88" x2="361.906" y2="362.88"/>
		
			<line style="fill:none;stroke:#443963;stroke-linecap:round;stroke-linejoin:round;stroke-miterlimit:10;" x1="306.066" y1="367.92" x2="359.986" y2="367.92"/>
		
			<line style="fill:none;stroke:#443963;stroke-linecap:round;stroke-linejoin:round;stroke-miterlimit:10;" x1="304.146" y1="372.96" x2="358.066" y2="372.96"/>
		
			<line style="fill:none;stroke:#443963;stroke-linecap:round;stroke-linejoin:round;stroke-miterlimit:10;" x1="302.226" y1="378" x2="356.146" y2="378"/>
		
			<line style="fill:none;stroke:#443963;stroke-linecap:round;stroke-linejoin:round;stroke-miterlimit:10;" x1="300.306" y1="383.04" x2="354.226" y2="383.04"/>
		
			<line style="fill:none;stroke:#443963;stroke-linecap:round;stroke-linejoin:round;stroke-miterlimit:10;" x1="298.386" y1="388.08" x2="352.306" y2="388.08"/>
		
			<line style="fill:none;stroke:#443963;stroke-linecap:round;stroke-linejoin:round;stroke-miterlimit:10;" x1="296.466" y1="393.12" x2="350.386" y2="393.12"/>
		
			<line style="fill:none;stroke:#443963;stroke-linecap:round;stroke-linejoin:round;stroke-miterlimit:10;" x1="294.546" y1="398.16" x2="348.466" y2="398.16"/>
		
			<line style="fill:none;stroke:#443963;stroke-linecap:round;stroke-linejoin:round;stroke-miterlimit:10;" x1="292.626" y1="403.2" x2="346.546" y2="403.2"/>
		
			<line style="fill:none;stroke:#443963;stroke-linecap:round;stroke-linejoin:round;stroke-miterlimit:10;" x1="290.706" y1="408.24" x2="344.626" y2="408.24"/>
		
			<line style="fill:none;stroke:#443963;stroke-linecap:round;stroke-linejoin:round;stroke-miterlimit:10;" x1="288.786" y1="413.28" x2="342.706" y2="413.28"/>
		
			<line style="fill:none;stroke:#443963;stroke-linecap:round;stroke-linejoin:round;stroke-miterlimit:10;" x1="286.866" y1="418.32" x2="340.786" y2="418.32"/>
		
			<line style="fill:none;stroke:#443963;stroke-linecap:round;stroke-linejoin:round;stroke-miterlimit:10;" x1="284.946" y1="423.36" x2="338.866" y2="423.36"/>
		
			<line style="fill:none;stroke:#443963;stroke-linecap:round;stroke-linejoin:round;stroke-miterlimit:10;" x1="283.026" y1="428.4" x2="336.946" y2="428.4"/>
		
			<line style="fill:none;stroke:#443963;stroke-linecap:round;stroke-linejoin:round;stroke-miterlimit:10;" x1="281.106" y1="433.44" x2="335.026" y2="433.44"/>
	</g>
	<g id="save_icon">
		<path style="fill:#F0405C;" d="M250.187,75.957c0,12.829,9.492,23.419,21.832,25.155l19.375,13.942l-11.929-13.942h-0.163
			c12.296-1.795,21.729-12.37,21.729-25.155c0-14.046-11.376-25.422-25.422-25.422C261.563,50.535,250.187,61.911,250.187,75.957z"
			/>
		<rect x="264.047" y="64.135" style="fill:#120239;" width="23.123" height="23.123"/>
		<rect x="269.026" y="64.135" style="fill:#443963;" width="13.165" height="7.151"/>
		<rect x="270.329" y="65.238" style="fill:#120239;" width="2.45" height="4.945"/>
		<path style="fill:#443963;" d="M278.839,78.336c0,1.993-1.616,3.609-3.609,3.609c-1.993,0-3.609-1.616-3.609-3.609
			c0-1.993,1.616-3.609,3.609-3.609C277.223,74.727,278.839,76.342,278.839,78.336z"/>
		
			<rect x="274.489" y="77.594" transform="matrix(0.7706 0.6373 -0.6373 0.7706 113.0667 -157.4419)" style="fill:#120239;" width="1.482" height="1.482"/>
		
			<rect x="275.588" y="76.439" transform="matrix(0.7706 0.6373 -0.6373 0.7706 112.6814 -158.7065)" style="fill:#120239;" width="2.445" height="1.482"/>
	</g>
</g>
</svg>
